<?xml version="1.0" encoding="iso-8859-1"?>
<!-- Generator: Adobe Illustrator 19.0.0, SVG Export Plug-In . SVG Version: 6.00 Build 0)  -->
<svg version="1.1" id="Layer_1" xmlns="http://www.w3.org/2000/svg" xmlns:xlink="http://www.w3.org/1999/xlink" x="0px" y="0px"
	 viewBox="0 0 512 512" style="enable-background:new 0 0 512 512;" xml:space="preserve">
<g>
	<g>
		<path d="M310.46,228.314c-7.392-8.121-18.62-11.574-30.048-9.802c-1.242-11.61-4.485-22.626-9.342-32.724
			c26.661-34.689,27.947-82.889,2.578-119.121c-2.045-2.921-5.749-4.177-9.148-3.106c-3.401,1.072-5.714,4.226-5.714,7.792
			c0,26.769-12.601,51.71-33.927,67.639c-13.463-6.681-28.617-10.448-44.639-10.448s-31.175,3.767-44.637,10.448
			c-21.327-15.93-33.927-40.87-33.927-67.639c0-3.565-2.313-6.719-5.714-7.792c-3.399-1.071-7.104,0.185-9.148,3.106
			c-25.37,36.231-24.082,84.431,2.579,119.12c-4.857,10.098-8.1,21.114-9.342,32.724c-11.423-1.775-22.655,1.682-30.048,9.802
			c-6.36,6.986-9.132,16.36-7.807,26.394c1.256,9.518,6.11,18.547,13.667,25.427c7.928,7.217,18.725,10.546,27.935,11.068
			c11.791,38.856,46.469,67.852,88.273,71.222v3.056c0,4.512,3.657,8.17,8.17,8.17c4.512,0,8.17-3.658,8.17-8.17v-3.056
			c41.805-3.37,76.483-32.368,88.274-71.227c9.211-0.522,20.006-3.848,27.935-11.064c7.557-6.879,12.411-15.909,13.667-25.427
			C319.593,244.673,316.819,235.3,310.46,228.314z M271.437,98.428c7.79,23.982,4.5,50.522-9.495,72.024
			c-6.201-8.585-13.716-16.155-22.253-22.418C255.087,134.926,266.086,117.645,271.437,98.428z M180.221,144.884
			c26.649,0,50.438,12.425,65.922,31.771c-6.875-2.916-14.426-4.537-22.348-4.537c-17.057,0-32.85,7.486-43.574,20.138
			c-10.724-12.652-26.516-20.138-43.574-20.138c-7.922,0-15.473,1.622-22.348,4.538C129.781,157.31,153.571,144.884,180.221,144.884
			z M89.004,98.427c5.35,19.219,16.348,36.498,31.747,49.606c-8.537,6.264-16.053,13.833-22.253,22.418
			C84.503,148.948,81.213,122.408,89.004,98.427z M302.067,252.569c-0.752,5.697-3.758,11.195-8.466,15.481
			c-3.562,3.243-8.565,5.291-13.366,6.25c0.493-4.035,0.753-8.142,0.753-12.309c0-4.512-3.657-8.17-8.17-8.17
			c-4.513,0-8.17,3.658-8.17,8.17c0,43.795-33.523,79.899-76.255,84.023l0.001-22.399c0-4.512-3.657-8.17-8.17-8.17
			c-4.512,0-8.17,3.658-8.17,8.17l-0.001,22.399c-42.732-4.123-76.255-40.228-76.255-84.023c0-4.512-3.657-8.17-8.17-8.17
			c-4.513,0-8.17,3.658-8.17,8.17c0,4.167,0.259,8.274,0.753,12.309c-4.802-0.96-9.804-3.007-13.365-6.25
			c-4.708-4.286-7.716-9.784-8.468-15.482c-0.686-5.181,0.624-9.888,3.689-13.253c4.945-5.429,13.824-6.475,22.098-2.605
			c2.528,1.183,5.489,0.995,7.848-0.507c2.357-1.499,3.786-4.099,3.786-6.893c0-0.709,0.036-1.41,0.053-2.116
			c1.105-21.721,19.023-38.735,40.798-38.735c15.347,0,29.261,8.487,36.315,22.15c1.402,2.717,4.202,4.423,7.26,4.423
			c3.057,0,5.857-1.706,7.259-4.423c7.054-13.663,20.969-22.15,36.315-22.15c21.774,0,39.693,17.015,40.798,38.735
			c0.017,0.705,0.053,1.406,0.053,2.116c0,2.794,1.428,5.395,3.786,6.893c2.358,1.5,5.318,1.691,7.848,0.507
			c8.273-3.872,17.153-2.827,22.098,2.605C301.441,242.68,302.752,247.388,302.067,252.569z"/>
	</g>
</g>
<g>
	<g>
		<path d="M151.469,232.033h-19.064c-4.513,0-8.17,3.658-8.17,8.17c0,4.512,3.657,8.17,8.17,8.17h11.359
			c1.121,3.173,4.148,5.447,7.705,5.447c4.513,0,8.17-3.658,8.17-8.17v-5.447C159.639,235.691,155.982,232.033,151.469,232.033z"/>
	</g>
</g>
<g>
	<g>
		<path d="M200.816,270.632c-4.255-1.51-8.924,0.71-10.435,4.962c-1.524,4.288-5.607,7.169-10.159,7.169s-8.635-2.881-10.159-7.169
			c-1.511-4.253-6.183-6.471-10.435-4.962c-4.252,1.512-6.473,6.183-4.961,10.435c3.836,10.788,14.105,18.035,25.555,18.035
			c11.45,0,21.72-7.248,25.555-18.035C207.289,276.815,205.068,272.144,200.816,270.632z"/>
	</g>
</g>
<g>
	<g>
		<path d="M228.035,232.033h-19.064c-4.513,0-8.17,3.658-8.17,8.17v5.447c0,4.512,3.658,8.17,8.17,8.17
			c3.558,0,6.584-2.273,7.705-5.447h11.359c4.513,0,8.17-3.658,8.17-8.17C236.205,235.691,232.548,232.033,228.035,232.033z"/>
	</g>
</g>
<g>
	<g>
		<path d="M509.607,51.414l-16.34-16.34c-0.011-0.011-0.023-0.02-0.033-0.029c-0.181-0.179-0.369-0.35-0.566-0.512
			c-0.093-0.075-0.19-0.141-0.284-0.212c-0.119-0.089-0.235-0.181-0.359-0.264c-0.112-0.075-0.229-0.139-0.343-0.209
			c-0.114-0.069-0.226-0.139-0.343-0.203c-0.117-0.062-0.236-0.114-0.355-0.171c-0.123-0.058-0.244-0.12-0.37-0.172
			c-0.114-0.047-0.232-0.085-0.349-0.127c-0.135-0.049-0.268-0.1-0.406-0.143c-0.115-0.035-0.232-0.06-0.349-0.089
			c-0.142-0.036-0.282-0.075-0.426-0.103c-0.132-0.026-0.265-0.041-0.398-0.061c-0.131-0.02-0.26-0.044-0.393-0.057
			c-0.235-0.023-0.471-0.033-0.706-0.036c-0.033,0-0.064-0.004-0.097-0.004c-0.033,0-0.064,0.004-0.097,0.004
			c-0.235,0.003-0.472,0.013-0.706,0.036c-0.133,0.013-0.263,0.037-0.393,0.057c-0.133,0.02-0.266,0.035-0.398,0.061
			c-0.145,0.028-0.284,0.069-0.426,0.103c-0.117,0.029-0.233,0.056-0.349,0.089c-0.138,0.042-0.271,0.094-0.406,0.142
			c-0.117,0.042-0.234,0.081-0.35,0.127c-0.125,0.052-0.246,0.113-0.369,0.171c-0.119,0.057-0.24,0.109-0.356,0.172
			c-0.118,0.063-0.229,0.134-0.343,0.203c-0.114,0.069-0.231,0.134-0.343,0.209c-0.124,0.083-0.241,0.174-0.359,0.264
			c-0.095,0.071-0.192,0.136-0.284,0.212c-0.197,0.161-0.386,0.332-0.566,0.512c-0.011,0.011-0.023,0.02-0.033,0.029l-16.34,16.34
			c-3.191,3.191-3.191,8.364,0,11.554c3.192,3.191,8.364,3.191,11.555,0l2.392-2.392v89.212c0,34.776-26.213,63.526-59.915,67.577
			V27.895l2.392,2.392c1.596,1.595,3.688,2.393,5.778,2.393s4.182-0.797,5.778-2.393c3.191-3.191,3.191-8.364,0-11.554l-16.34-16.34
			c-0.011-0.011-0.023-0.02-0.033-0.029c-0.181-0.179-0.369-0.35-0.566-0.512c-0.093-0.075-0.19-0.141-0.284-0.212
			c-0.119-0.089-0.235-0.181-0.359-0.264c-0.112-0.075-0.229-0.139-0.343-0.209c-0.114-0.069-0.226-0.139-0.343-0.203
			c-0.117-0.062-0.236-0.114-0.355-0.171c-0.123-0.058-0.244-0.12-0.37-0.172c-0.114-0.047-0.232-0.085-0.349-0.127
			c-0.135-0.049-0.268-0.1-0.406-0.143c-0.115-0.035-0.232-0.06-0.349-0.089c-0.142-0.036-0.282-0.075-0.426-0.104
			c-0.132-0.026-0.265-0.041-0.398-0.061c-0.131-0.02-0.26-0.044-0.393-0.057c-0.235-0.023-0.471-0.033-0.706-0.036
			c-0.033,0-0.064-0.004-0.097-0.004c-0.033,0-0.064,0.004-0.097,0.004c-0.235,0.003-0.472,0.013-0.706,0.036
			c-0.133,0.013-0.263,0.037-0.393,0.057c-0.133,0.02-0.266,0.035-0.398,0.061c-0.145,0.028-0.284,0.069-0.426,0.104
			c-0.117,0.029-0.233,0.056-0.349,0.089c-0.138,0.042-0.271,0.094-0.406,0.142c-0.117,0.042-0.234,0.081-0.35,0.128
			c-0.125,0.052-0.246,0.113-0.369,0.171c-0.119,0.057-0.24,0.109-0.356,0.172c-0.118,0.063-0.229,0.134-0.343,0.203
			c-0.114,0.069-0.231,0.134-0.343,0.209c-0.124,0.083-0.241,0.174-0.359,0.264c-0.095,0.071-0.192,0.136-0.284,0.212
			c-0.197,0.161-0.386,0.332-0.566,0.512c-0.011,0.011-0.023,0.02-0.033,0.029l-16.34,16.34c-3.191,3.191-3.191,8.364,0,11.554
			c3.192,3.191,8.364,3.191,11.555,0l2.392-2.392v189.469c-33.701-4.051-59.915-32.802-59.915-67.577v-89.21l2.392,2.392
			c1.596,1.595,3.688,2.393,5.778,2.393s4.182-0.797,5.778-2.393c3.191-3.191,3.191-8.364,0-11.554l-16.34-16.34
			c-0.011-0.011-0.023-0.02-0.033-0.029c-0.181-0.179-0.369-0.35-0.566-0.512c-0.093-0.075-0.19-0.141-0.284-0.212
			c-0.119-0.089-0.235-0.181-0.359-0.264c-0.112-0.075-0.229-0.139-0.343-0.209c-0.114-0.069-0.226-0.139-0.343-0.203
			c-0.117-0.062-0.236-0.114-0.355-0.171c-0.123-0.058-0.244-0.12-0.37-0.172c-0.114-0.047-0.232-0.085-0.349-0.127
			c-0.135-0.049-0.268-0.1-0.406-0.143c-0.115-0.035-0.232-0.06-0.349-0.089c-0.142-0.036-0.282-0.075-0.426-0.103
			c-0.132-0.026-0.265-0.041-0.398-0.061c-0.131-0.02-0.26-0.044-0.393-0.057c-0.235-0.023-0.471-0.033-0.706-0.036
			c-0.033,0-0.064-0.004-0.097-0.004c-0.033,0-0.064,0.004-0.097,0.004c-0.235,0.003-0.472,0.013-0.706,0.036
			c-0.133,0.013-0.263,0.037-0.393,0.057c-0.133,0.02-0.266,0.035-0.398,0.061c-0.145,0.028-0.284,0.069-0.426,0.103
			c-0.117,0.029-0.233,0.056-0.349,0.089c-0.138,0.042-0.271,0.094-0.406,0.142c-0.117,0.042-0.234,0.081-0.35,0.127
			c-0.125,0.052-0.246,0.113-0.369,0.171c-0.119,0.057-0.24,0.109-0.356,0.172c-0.118,0.063-0.229,0.134-0.343,0.203
			c-0.114,0.069-0.231,0.134-0.343,0.209c-0.124,0.083-0.241,0.174-0.359,0.264c-0.095,0.071-0.192,0.136-0.284,0.212
			c-0.197,0.161-0.386,0.332-0.566,0.512c-0.011,0.011-0.023,0.02-0.033,0.029l-16.34,16.34c-3.191,3.191-3.191,8.364,0,11.554
			c3.192,3.191,8.364,3.191,11.555,0l2.392-2.392v89.212c0,43.795,33.523,79.899,76.255,84.023v270.018
			c0,4.512,3.657,8.17,8.17,8.17c4.513,0,8.17-3.658,8.17-8.17V233.81c42.732-4.123,76.255-40.228,76.255-84.023V60.576l2.392,2.392
			c1.596,1.595,3.688,2.393,5.778,2.393s4.182-0.797,5.778-2.393C512.798,59.778,512.798,54.604,509.607,51.414z"/>
	</g>
</g>
<g>
	<g>
		<path d="M359.859,500.798c-14.177-35.505-38.359-65.793-69.937-87.588c-32.335-22.318-70.269-34.114-109.7-34.114
			s-77.366,11.797-109.7,34.114c-31.577,21.795-55.761,52.082-69.937,87.588c-1.672,4.191,0.368,8.944,4.559,10.617
			c4.19,1.674,8.945-0.367,10.618-4.559c15.249-38.194,42.45-68.759,76.354-88.145c-1.095,8.322-0.909,16.601,0.63,24.296
			c0.729,3.643,3.821,6.335,7.529,6.555c15.983,0.949,33.521-4.096,47.698-13.275c4.667,16.231,14.591,31.553,27.26,41.329
			c1.471,1.135,3.23,1.702,4.99,1.702c1.76,0,3.52-0.568,4.99-1.702c12.67-9.776,22.593-25.098,27.26-41.328
			c14.178,9.178,31.728,14.22,47.698,13.275c3.707-0.219,6.8-2.912,7.529-6.555c1.538-7.695,1.726-15.974,0.63-24.296
			c33.903,19.386,61.104,49.951,76.354,88.145c1.277,3.197,4.345,5.143,7.591,5.143c1.009,0,2.034-0.187,3.027-0.585
			C359.491,509.742,361.531,504.989,359.859,500.798z M252.555,433.217c-14.357-0.953-29.446-7.458-39.919-17.498
			c-2.266-2.172-5.579-2.853-8.518-1.754c-2.94,1.1-4.99,3.789-5.274,6.915c-1.307,14.45-8.42,29.265-18.624,39.41
			c-10.204-10.145-17.316-24.96-18.624-39.41c-0.283-3.128-2.333-5.815-5.274-6.915c-2.938-1.099-6.251-0.418-8.518,1.754
			c-10.473,10.041-25.562,16.545-39.919,17.498c-0.546-7.657,0.462-15.834,2.934-23.768c21.466-9.089,44.964-14.012,69.402-14.012
			c24.438,0,47.935,4.924,69.4,14.011C252.093,417.383,253.101,425.56,252.555,433.217z"/>
	</g>
</g>
<g>
</g>
<g>
</g>
<g>
</g>
<g>
</g>
<g>
</g>
<g>
</g>
<g>
</g>
<g>
</g>
<g>
</g>
<g>
</g>
<g>
</g>
<g>
</g>
<g>
</g>
<g>
</g>
<g>
</g>
</svg>
